<svg height="40" viewBox="0 0 512 512" width="40" xmlns="http://www.w3.org/2000/svg" xmlns:xlink="http://www.w3.org/1999/xlink"><linearGradient id="New_Gradient_Swatch_2" gradientUnits="userSpaceOnUse" x1="272" x2="272" y1="56.082" y2="457.399"><stop offset="0" stop-color="#fc5c7d"/><stop offset=".129" stop-color="#f35e85"/><stop offset=".343" stop-color="#d9659b"/><stop offset=".616" stop-color="#b070bf"/><stop offset=".934" stop-color="#777ff0"/><stop offset="1" stop-color="#6a82fb"/></linearGradient><g id="GD001"><path d="m439.59 125.47a8.006 8.006 0 0 0 -4.439-4.824l-56-24v.007c-.03-.013-.056-.031-.086-.044a8 8 0 0 0 -8.719 1.734l-40.625 40.625-47.694-117.968a8 8 0 0 0 -7.348-5h-.069a8 8 0 0 0 -7.364 4.876l-48.568 114.488-117.021-117.021a8 8 0 0 0 -13.657 5.657v232a8 8 0 0 0 2.207 5.518l84.842 89.082-93.449 124.6a8 8 0 0 0 8.93 12.39l168-56v-.008a7.994 7.994 0 0 0 3.129-1.925l120-120a7.975 7.975 0 0 0 2.341-5.657v-110.241l70.431 14.086a8 8 0 0 0 9.159-10.375zm-165.157-80.57 43 106.354-41.433 41.432-45.118-45.118zm-170.433-1.587 156.762 156.762-156.762 45.287zm5.766 421 76.472-101.963 55.28 58.044zm139.864-58.6-138.747-145.686 156.09-45.092zm16.337-2.993 16.453-180.986 82.267 82.266zm102.033-118.034-80.686-80.686 80.686-80.687zm16-107.245v-61.309l41.547 17.806 18.5 55.514z" fill="url(#New_Gradient_Swatch_2)"/></g></svg>